<svg width="32" height="24" viewBox="0 0 32 24" xmlns="http://www.w3.org/2000/svg">
  <!-- German Flag (left half) -->
  <rect x="0" y="0" width="16" height="8" fill="#000000"/>
  <rect x="0" y="8" width="16" height="8" fill="#DD0000"/>
  <rect x="0" y="16" width="16" height="8" fill="#FFCE00"/>
  
  <!-- US Flag (right half) -->
  <rect x="16" y="0" width="16" height="24" fill="#B22234"/>
  <rect x="16" y="1.85" width="16" height="1.85" fill="#FFFFFF"/>
  <rect x="16" y="5.54" width="16" height="1.85" fill="#FFFFFF"/>
  <rect x="16" y="9.23" width="16" height="1.85" fill="#FFFFFF"/>
  <rect x="16" y="12.92" width="16" height="1.85" fill="#FFFFFF"/>
  <rect x="16" y="16.62" width="16" height="1.85" fill="#FFFFFF"/>
  <rect x="16" y="20.31" width="16" height="1.85" fill="#FFFFFF"/>
  
  <!-- Blue canton -->
  <rect x="16" y="0" width="6.4" height="12.92" fill="#3C3B6E"/>
  
  <!-- Stars (simplified) -->
  <circle cx="18" cy="2" r="0.4" fill="#FFFFFF"/>
  <circle cx="20" cy="2" r="0.4" fill="#FFFFFF"/>
  <circle cx="22" cy="2" r="0.4" fill="#FFFFFF"/>
  <circle cx="19" cy="4" r="0.4" fill="#FFFFFF"/>
  <circle cx="21" cy="4" r="0.4" fill="#FFFFFF"/>
  <circle cx="18" cy="6" r="0.4" fill="#FFFFFF"/>
  <circle cx="20" cy="6" r="0.4" fill="#FFFFFF"/>
  <circle cx="22" cy="6" r="0.4" fill="#FFFFFF"/>
  <circle cx="19" cy="8" r="0.4" fill="#FFFFFF"/>
  <circle cx="21" cy="8" r="0.4" fill="#FFFFFF"/>
  <circle cx="18" cy="10" r="0.4" fill="#FFFFFF"/>
  <circle cx="20" cy="10" r="0.4" fill="#FFFFFF"/>
  <circle cx="22" cy="10" r="0.4" fill="#FFFFFF"/>
</svg>